<?xml version="1.0" encoding="UTF-8"?>
<svg id="Livello_2" data-name="Livello 2" xmlns="http://www.w3.org/2000/svg" viewBox="0 0 443.63 396.22">
  <defs>
    <style>
      .cls-1 {
        fill: #241c18;
      }

      .cls-2 {
        fill: #3d53a1;
      }

      .cls-3 {
        fill: #f6a316;
      }

      .cls-4 {
        fill: #7acadc;
      }

      .cls-5 {
        fill: #f7ec66;
      }

      .cls-6 {
        fill: #221a17;
      }

      .cls-7 {
        fill: #6cb649;
      }

      .cls-8 {
        fill: #ed6e45;
      }
    </style>
  </defs>
  <g id="Livello_1-2" data-name="Livello 1">
    <g>
      <path class="cls-3" d="m30.23,278.94l20.66-5.09-17.67,10.89c-1.03-1.92-2.03-3.85-2.99-5.8Z"/>
      <g>
        <g>
          <path class="cls-3" d="m38.75,241.18l-24.18,4.81c-4.15-15.33-6.34-31.37-6.34-47.88,0-26.75,5.76-52.27,16.21-75.55,2.1,11.76,5.8,30.31,8.97,35.07,0,0-15.41,50.96,5.34,83.55Z"/>
          <path class="cls-3" d="m179.37,58.66s-29.43-27.63-54.3-36.79C154.56,7.89,188.02,0,223.49,0c32.26,0,62.86,6.53,90.32,18.23-13,6.5-44.4,23.29-58.77,40.43,0,0-42.89-10.07-75.67,0Z"/>
          <path class="cls-3" d="m349.86,299.85l43.42,20.05c-39.4,46.45-100.81,76.32-169.79,76.32s-133.35-31.33-172.6-79.71l40-16.66s53.3,37.33,126.8,36.74c73.5-.59,132.17-36.74,132.17-36.74Z"/>
          <path class="cls-3" d="m438.75,198.11c0,20.78-3.48,40.81-9.93,59.63l-30.37-8.66s14.81-29.23,14.81-55.9-7.7-35.55-7.7-35.55c0,0,10.21-15.1,11.42-46.43,13.95,26.24,21.77,55.73,21.77,86.91Z"/>
        </g>
        <g>
          <g>
            <g>
              <ellipse class="cls-6" cx="179.38" cy="180.22" rx="18.19" ry="38.89"/>
              <ellipse class="cls-6" cx="264.67" cy="177.18" rx="18.19" ry="38.89"/>
            </g>
            <path class="cls-1" d="m383.78,29.33v-14.22c-63,1.56-113.95,46.89-125.22,57.71-12.26-1.9-25-2.9-38.07-2.9-15.37,0-30.28,1.38-44.5,3.97C109.99,12.24,55.34,24.88,55.34,24.88c-30.29,54.52-14.71,110.82-5.36,134.95-4.85,11.49-7.46,23.67-7.46,36.28,0,17.69,5.14,34.54,14.42,49.82,19.41-4.79,36.85-8.6,44.65-10.26,2.09-.45,4.24-.05,6.04,1.13,1.79,1.17,3.02,2.97,3.46,5.08.88,4.29-1.88,8.53-6.16,9.44-6.89,1.48-21.37,4.64-37.96,8.65,2.57,3.11,5.33,6.13,8.26,9.05,18.41-8.14,36.28-13.77,44.82-16.28,2.08-.61,4.27-.36,6.17.7,1.87,1.06,3.21,2.77,3.78,4.84l.03.09c1.12,4.22-1.27,8.49-5.46,9.73-7.15,2.12-21.08,6.51-36.05,12.66,32.56,25.51,79.62,41.53,131.97,41.53,49.39,0,94.08-14.27,126.32-37.31-.01-.01-.03-.01-.04-.02-11.66-4.43-21.92-7.65-27.72-9.36-4.19-1.24-6.59-5.52-5.46-9.73.56-2.12,1.92-3.86,3.81-4.93,1.9-1.06,4.09-1.31,6.17-.7,7.41,2.17,21.85,6.7,37.57,13.17,2.76-2.51,5.38-5.1,7.86-7.77-13.3-3.13-24.5-5.57-30.31-6.82-4.28-.92-7.04-5.15-6.16-9.44.44-2.11,1.67-3.91,3.46-5.09,1.8-1.17,3.94-1.57,6.04-1.12,6.92,1.48,21.43,4.64,38.16,8.67,11.69-16.81,18.26-35.73,18.26-55.73,0-12.55-2.58-24.66-7.38-36.1,28.83-78.66-7.29-130.68-7.29-130.68ZM63.47,136.66s-17.91-35.78,4.31-87.33c0,0,32.62-9.1,82.53,30.78,0,0-52.27,12.34-86.84,56.55Zm45.61,44.08c0-31.42,21.49-56.89,48-56.89s48,25.47,48,56.89-21.49,56.89-48,56.89-48-25.47-48-56.89Zm156.23,76.1c-2.49,5.67-7.13,16.24-19.83,18.11-1.13.17-2.26.25-3.37.25-6.48,0-12.73-2.79-18.23-8.18-.14-.14-.31-.3-.49-.48-1.66-1.57-4.64-4.4-6.64-8.6-3.43,5.34-7.68,9.77-11.59,11.93-4.62,2.56-9.02,3.85-13.15,3.85-2.66,0-5.21-.54-7.63-1.6-11.31-4.98-15-19.89-15.15-20.52l7.77-1.88c.03.12,2.95,11.73,10.62,15.09,3.78,1.65,8.37,1,13.67-1.94,3.59-1.99,8.28-7.68,11.18-13.58.83-2.08,1.54-4.23,2.11-6.39.58-2.18,1.03-4.39,1.34-6.63-1.83-.37-3.62-.97-5.3-1.79-2.83-1.38-5.38-3.4-7.38-5.84l6.19-5.07c1.28,1.56,2.9,2.84,4.7,3.72,2.4,1.17,4.67,1.42,6.16,1.42h.1s3.92-.17,11.03-5.75l4.94,6.29c-5.38,4.23-9.55,6.08-12.35,6.87-.2,1.62-.45,3.23-.78,4.83-.02.44-.06,1.03-.1,1.73-.14,1.99-.5,7.27-.2,8.73.9,4.53,4.2,7.65,5.96,9.33.22.21.42.4.59.56,4.66,4.57,9.65,6.5,14.83,5.74,8.32-1.23,11.54-8.57,13.67-13.42.36-.82.69-1.55.99-2.17l7.18,3.53c-.26.53-.53,1.16-.84,1.86Zm20.95-22.77c-26.51,0-48-25.47-48-56.89s21.49-56.89,48-56.89,48,25.47,48,56.89-21.49,56.89-48,56.89Zm89.75-99.34s-.02-.02-.03-.04c-19.24-24.44-49.6-43.87-86.22-54.85-.3-.1-.6-.19-.9-.27-.86-.26-1.73-.51-2.6-.75,0,0,41.52-35.71,79.74-38.38,0,0,29.34,42.81,10.01,94.29Z"/>
          </g>
          <g>
            <path class="cls-1" d="m384.38,299.1c-23.14-13.47-53.08-23.01-64.47-26.38-2.6-.77-4.11-3.46-3.41-6.08h0c.72-2.73,3.54-4.31,6.23-3.52,11.82,3.47,42.39,13.18,66.71,27.36,2.43,1.42,3.19,4.58,1.7,6.97h0c-1.44,2.29-4.42,3.01-6.76,1.65Z"/>
            <path class="cls-1" d="m436.99,281.2c-30.38-10.57-81.74-21.9-97.67-25.31-2.69-.58-4.4-3.21-3.85-5.9h0c.56-2.72,3.22-4.46,5.94-3.88,16.16,3.44,67.57,14.76,98.86,25.65,2.65.92,4.02,3.84,3.04,6.47h0c-.95,2.54-3.75,3.87-6.31,2.98Z"/>
            <path class="cls-1" d="m59.25,291.6c23.14-13.47,53.08-23.01,64.47-26.38,2.6-.77,4.11-3.46,3.41-6.08h0c-.72-2.73-3.54-4.31-6.23-3.52-11.82,3.47-42.39,13.18-66.71,27.36-2.43,1.42-3.19,4.58-1.7,6.97h0c1.44,2.29,4.42,3.01,6.76,1.65Z"/>
            <path class="cls-1" d="m6.63,273.7c30.38-10.57,81.74-21.9,97.67-25.31,2.69-.58,4.4-3.21,3.85-5.9h0c-.56-2.72-3.22-4.46-5.94-3.88-16.16,3.44-67.57,14.76-98.86,25.65-2.65.92-4.02,3.84-3.04,6.47h0c.95,2.54,3.75,3.87,6.31,2.98Z"/>
          </g>
        </g>
      </g>
    </g>
    <g>
      <rect class="cls-5" x="316.14" y="343.95" width="22.04" height="22.04"/>
      <rect class="cls-4" x="338.18" y="343.95" width="22.04" height="22.04"/>
      <rect class="cls-7" x="360.22" y="343.95" width="22.04" height="22.04"/>
      <rect class="cls-8" x="382.26" y="343.95" width="22.04" height="22.04"/>
      <rect class="cls-2" x="404.3" y="343.95" width="22.04" height="22.04"/>
    </g>
  </g>
</svg>